<?xml version="1.0" encoding="UTF-8" standalone="no"?>
<!-- Created with Inkscape (http://www.inkscape.org/) -->

<svg
   width="210mm"
   height="297mm"
   viewBox="0 0 210 297"
   version="1.1"
   id="svg362"
   inkscape:version="1.2.2 (732a01da63, 2022-12-09)"
   sodipodi:docname="logo.svg"
   xmlns:inkscape="http://www.inkscape.org/namespaces/inkscape"
   xmlns:sodipodi="http://sodipodi.sourceforge.net/DTD/sodipodi-0.dtd"
   xmlns="http://www.w3.org/2000/svg"
   xmlns:svg="http://www.w3.org/2000/svg">
  <sodipodi:namedview
     id="namedview364"
     pagecolor="#ffffff"
     bordercolor="#000000"
     borderopacity="0.25"
     inkscape:showpageshadow="2"
     inkscape:pageopacity="0.0"
     inkscape:pagecheckerboard="0"
     inkscape:deskcolor="#d1d1d1"
     inkscape:document-units="mm"
     showgrid="false"
     inkscape:zoom="0.74564394"
     inkscape:cx="396.97231"
     inkscape:cy="561.9304"
     inkscape:window-width="1920"
     inkscape:window-height="1017"
     inkscape:window-x="-8"
     inkscape:window-y="-8"
     inkscape:window-maximized="1"
     inkscape:current-layer="layer1" />
  <defs
     id="defs359" />
  <g
     inkscape:label="Layer 1"
     inkscape:groupmode="layer"
     id="layer1">
    <path
       style="fill:#000000;stroke-width:0.422854"
       d="m 69.548147,145.48843 c 0,-0.27045 10.573845,-0.41158 30.836303,-0.41158 19.27088,0 30.83629,0.1472 30.83629,0.39266 0,0.2452 -11.57936,0.39976 -30.83629,0.41159 -20.275787,0.0124 -30.836303,-0.122 -30.836303,-0.39267 z m 15.558676,-1.54362 c 8.67672,-0.0624 22.748497,-0.0624 31.270617,8e-5 8.52213,0.0624 1.423,0.11343 -15.77583,0.11343 -17.198848,-5e-5 -24.171485,-0.051 -15.494787,-0.11343 z M 73.309729,131.21798 C 72.67565,105.15294 73.048402,90.740912 74.57357,82.353982 76.502843,71.744784 81.101378,63.58575 89.295573,56.233157 c 3.34143,-2.998227 10.405472,-8.317115 11.046037,-8.317115 0.14314,0 2.0192,1.24934 4.16897,2.776313 10.37496,7.369276 17.1707,15.974449 20.15897,25.526531 2.61816,8.369035 3.16315,17.171174 2.79134,45.082394 -0.2893,21.71709 -0.2893,21.71709 -27.07668,21.71709 -26.787399,0 -26.787399,0 -27.074481,-11.80039 z m 53.453881,-15.47464 c -0.20191,-28.109189 -0.31916,-29.87341 -2.52415,-37.979166 -2.56948,-9.44554 -8.19935,-17.255878 -17.55745,-24.357521 -7.061845,-5.359054 -6.14337,-5.210097 -10.909587,-1.769315 -5.21057,3.761582 -8.87339,7.164546 -11.96782,11.118786 -3.404737,4.350771 -4.887801,7.029095 -6.61379,11.944143 -3.082461,8.777803 -3.976373,18.34655 -3.574648,38.264113 0.148391,7.35911 0.271061,16.94653 0.272505,21.30539 0.0033,7.92519 0.0033,7.92519 26.53379,7.92519 26.53114,0 26.53114,0 26.34115,-26.45162 z m -23.33896,25.22236 c 21.49854,-0.21168 21.49854,-0.21168 21.49705,-26.35452 -0.002,-28.563505 -0.16284,-30.863762 -2.69838,-38.493794 -2.13135,-6.413812 -4.95059,-10.891726 -10.03071,-15.932149 -3.05007,-3.026231 -11.27969,-9.387307 -12.14481,-9.387307 -0.732877,0 -6.339057,4.247362 -9.989627,7.568345 -8.128428,7.394549 -11.844245,14.382363 -13.817773,25.985068 -0.508373,2.988891 -0.792599,8.798607 -1.037298,21.202467 -0.337033,17.08548 -0.337033,17.08548 -0.217318,0 0.09127,-13.021166 0.281567,-18.064836 0.800101,-21.202467 1.865237,-11.286583 5.398815,-18.25462 12.854838,-25.349046 3.61054,-3.435436 10.80941,-9.027765 11.621247,-9.027765 0.22227,0 1.85489,1.028857 3.62803,2.286348 8.1948,5.81169 13.4022,11.441509 16.73515,18.092724 4.84553,9.669654 5.71556,18.311476 5.17071,51.359366 -0.32411,19.65859 -0.32411,19.65859 -22.09692,19.5615 -21.772839,-0.0971 -21.772839,-0.0971 -0.27429,-0.30877 z m -17.481157,-1.13677 c 5.32036,-0.12946 5.32036,-0.12946 5.31793,-21.62806 -0.002,-14.45042 -0.16005,-22.036884 -0.48331,-23.140557 -0.26448,-0.903086 -1.11346,-2.207517 -1.88661,-2.898719 -0.95176,-0.850882 -1.4886,-1.783127 -1.66235,-2.886707 -0.2566,-1.629952 -0.2566,-1.629952 0.26313,-0.106277 0.28585,0.838044 1.14168,2.134898 1.90187,2.881899 2.5425,2.498479 2.50051,2.122123 2.6554,23.795731 0.0785,10.98205 0.0174,20.94001 -0.13558,22.1288 -0.27829,2.16141 -0.27829,2.16141 -5.78455,2.07239 -5.506248,-0.089 -5.506248,-0.089 -0.18591,-0.21851 z m 15.743907,-0.0887 c 7.16617,-0.22137 7.16617,-0.22137 7.16617,-21.83553 0,-20.170041 0.054,-21.73117 0.80786,-23.365416 0.44432,-0.963195 1.34418,-2.179042 1.99969,-2.701898 0.65552,-0.522856 1.30263,-1.216921 1.43801,-1.542348 0.20438,-0.491268 0.25199,-0.493929 0.28045,-0.01572 0.0189,0.316776 -0.62218,1.180323 -1.42453,1.918968 -0.90534,0.83347 -1.64685,2.050873 -1.9544,3.208711 -0.33971,1.27882 -0.4956,8.607403 -0.4956,23.297563 0,21.43187 0,21.43187 -7.49191,21.34445 -7.491937,-0.0874 -7.491937,-0.0874 -0.32574,-0.30876 z m 16.28676,0.005 c 5.21176,-0.22598 5.21176,-0.22598 5.21176,-21.84014 0,-23.486473 -0.0279,-23.784887 -2.39829,-25.675614 -0.68999,-0.550366 -1.37916,-1.529059 -1.53148,-2.174887 -0.15233,-0.645829 -0.36928,-1.54476 -0.48217,-1.997641 -0.1677,-0.672748 -0.1218,-0.710419 0.25087,-0.205847 0.25085,0.33965 0.45911,0.996277 0.46276,1.459163 0.003,0.462886 0.76229,1.609755 1.68583,2.548598 1.0365,1.053663 1.86765,2.416461 2.17158,3.560606 0.33562,1.263477 0.49238,8.676972 0.49238,23.285472 0,21.43186 0,21.43186 -5.5375,21.34905 -5.53751,-0.0828 -5.53751,-0.0828 -0.32574,-0.30878 z M 79.103063,117.68256 c 0,-19.605176 0.04744,-20.895401 0.822409,-22.334631 0.452332,-0.840114 1.234097,-1.880394 1.73725,-2.311756 0.5881,-0.504167 0.914841,-1.283425 0.914841,-2.181858 0,-1.438281 1.04928,-3.826873 1.68109,-3.826873 0.81839,0 1.88302,1.703956 2.10216,3.364546 0.13871,1.051189 0.64839,2.203675 1.24309,2.810929 2.35445,2.404106 2.35701,2.430947 2.35701,24.688673 0,20.59814 0,20.59814 -5.42893,20.59814 -5.42892,0 -5.42892,0 -5.42892,-20.80717 z m 14.3419,-3.99765 c 0.008,-23.175068 0.0619,-24.914144 0.80682,-26.46866 0.43851,-0.915099 1.41143,-2.153679 2.16204,-2.752376 1.03038,-0.821877 1.36474,-1.426719 1.36474,-2.468851 0,-1.693578 1.721202,-5.054204 2.588587,-5.054204 1.06332,0 2.62319,2.635424 2.62319,4.431902 0,1.361818 0.28549,1.896717 1.71341,3.210314 3.07334,2.827267 3.06405,2.736488 3.06405,29.897065 0,24.00963 0,24.00963 -7.16619,24.00963 -7.166177,0 -7.166177,0 -7.156647,-24.80482 z m 17.456457,3.91113 c 0.11277,-19.035479 0.19173,-21.011631 0.88841,-22.219776 0.42059,-0.72934 1.12845,-1.655657 1.57306,-2.058497 0.4446,-0.402824 0.94181,-1.604433 1.10494,-2.670233 0.16316,-1.065799 0.67676,-2.362653 1.14142,-2.881883 0.84481,-0.944071 0.84481,-0.944071 1.68964,0 0.46465,0.51923 0.97829,1.816084 1.14141,2.881883 0.16316,1.0658 0.66035,2.267409 1.10496,2.670233 0.4446,0.40284 1.15246,1.329157 1.57305,2.058497 0.69667,1.208145 0.77569,3.184297 0.88839,22.219776 0.12377,20.89369 0.12377,20.89369 -5.55264,20.89369 -5.67634,0 -5.67634,0 -5.55264,-20.89369 z m -35.539814,12.24802 c 0,-2.83043 0.06943,-3.98833 0.154137,-2.57311 0.08487,1.41521 0.08487,3.73101 0,5.14623 -0.08487,1.41521 -0.154137,0.25731 -0.154137,-2.57312 z m 1.658146,-14.88786 c 0.125246,-18.535501 0.15545,-19.131785 1.065252,-20.997615 0.514988,-1.056183 1.356635,-2.133575 1.870327,-2.394178 0.513691,-0.260603 1.10601,-0.878548 1.31627,-1.373224 0.31745,-0.746876 0.386951,-0.772535 0.409817,-0.151245 0.01477,0.411475 -0.637115,1.34232 -1.449462,2.068564 -2.434198,2.176195 -2.522757,3.010847 -2.459083,23.177328 0.03989,12.65745 -0.08552,18.28104 -0.41228,18.47247 -0.334899,0.1962 -0.432749,-5.20101 -0.340841,-18.80206 z M 76.565745,91.967822 c 0,-0.566098 0.09865,-0.797665 0.219075,-0.514624 0.120486,0.283041 0.120486,0.746192 0,1.029233 -0.120486,0.283056 -0.219075,0.0515 -0.219075,-0.514609 z M 109.57361,91.14442 c 0,-0.566082 0.0987,-0.797665 0.21908,-0.514624 0.12048,0.283041 0.12048,0.746207 0,1.029248 -0.12049,0.283041 -0.21908,0.0515 -0.21908,-0.514624 z M 89.791553,91.10038 c -0.1044,-0.315453 -0.29972,-1.129348 -0.43407,-1.808646 -0.13444,-0.679299 -0.36274,-1.627432 -0.50754,-2.106968 -0.21046,-0.697068 -0.0428,-0.911799 0.83582,-1.071027 1.09905,-0.199156 1.09905,-0.199156 0.84363,2.51866 -0.26989,2.871971 -0.42854,3.402623 -0.73784,2.467981 z m 1.53737,-0.639791 c -0.0358,-0.715741 0.32329,-2.475746 0.79795,-3.911148 0.47468,-1.435386 0.86555,-2.646643 0.86864,-2.691706 0.003,-0.04512 -0.67217,0.186521 -1.50055,0.514625 -2.07271,0.820943 -4.29799,0.746876 -6.27419,-0.208803 -1.682,-0.813413 -3.946151,-3.002771 -3.946151,-3.81581 0,-0.242553 0.441317,0.188512 0.980715,0.957905 1.132619,1.615605 4.244726,3.251548 6.185476,3.251548 1.93412,0 5.05153,-1.634044 6.17489,-3.236673 2.17998,-3.110012 1.83325,-6.27934 -0.97855,-8.944733 -1.05387,-0.998984 -1.81667,-1.816333 -1.69511,-1.816333 0.12163,0 -0.002,-0.416844 -0.27359,-0.926317 -0.27203,-0.50949 0.13082,-0.226215 0.89536,0.62949 3.96841,4.441969 11.145157,4.543391 14.998007,0.211946 1.84672,-2.076127 2.49149,-3.907008 2.2928,-6.510721 -0.22285,-2.920442 -1.46369,-5.19885 -3.72729,-6.843984 -0.97963,-0.711964 -1.68789,-1.382873 -1.57392,-1.490906 0.11392,-0.108035 -0.77904,-0.79635 -1.98448,-1.529593 -2.15284,-1.30954 -2.21279,-1.320497 -3.382447,-0.618235 -0.65491,0.393214 -1.58164,1.067159 -2.0594,1.497657 -0.47774,0.430498 -1.69431,1.331063 -2.70347,2.001257 -1.06596,0.707904 -2.28597,2.040095 -2.9114,3.179059 -0.59209,1.078293 -1.08564,1.812379 -1.09677,1.631304 -0.0115,-0.181059 0.29526,-0.922122 0.68083,-1.646789 0.70105,-1.317574 0.70105,-1.317574 -1.12024,0.329219 -5.72983,5.180839 -9.666319,12.573048 -11.756935,22.078028 -0.771275,3.506612 -0.827169,3.623937 -0.612198,1.284951 0.48508,-5.278007 2.93791,-12.107978 6.158143,-17.147586 2.24209,-3.508837 8.69703,-9.702465 12.99812,-12.471951 3.618847,-2.330178 3.618847,-2.330178 6.768857,-0.302341 4.44062,2.858697 10.45761,8.472365 12.97104,12.101576 3.34331,4.827537 6.25532,12.865793 6.62528,18.288354 0.0944,1.384722 0.0896,2.054498 -0.0115,1.488416 -1.74382,-9.836352 -4.4822,-16.334578 -9.28182,-22.025865 -2.04771,-2.42813 -5.48993,-5.747366 -5.12342,-4.940375 0.10292,0.226434 0.53879,1.146098 0.9688,2.043699 0.95177,1.98676 0.80673,5.909842 -0.29542,7.989998 -0.40449,0.763402 -0.64252,1.530522 -0.52896,1.704673 0.11359,0.174166 -0.28981,0.6249 -0.89634,1.001613 -0.60654,0.37673 -1.49947,1.276999 -1.9843,2.000597 -0.62887,0.938579 -0.80126,1.050162 -0.60148,0.389334 0.15398,-0.509474 0.21803,-0.923533 0.14216,-0.920125 -0.0758,0.0031 -0.91962,0.273176 -1.87511,0.599474 -2.23794,0.764273 -4.440597,0.7782 -6.641827,0.04201 -1.75643,-0.587431 -1.75643,-0.587431 -1.14039,0.810176 0.33883,0.768692 0.61676,2.00567 0.61765,2.748858 0.002,1.351237 0.002,1.351237 0.83344,0.0582 0.45749,-0.711213 1.08833,-1.4434 1.40189,-1.627105 0.31356,-0.183688 0.13362,0.192107 -0.40002,0.835104 -0.53357,0.642996 -1.25832,2.08901 -1.61055,3.213363 -0.35224,1.124353 -1.32123,2.758584 -2.15331,3.631638 -1.4352,1.505875 -2.57051,4.239329 -2.98187,7.179345 -0.17282,1.235095 -0.17282,1.235095 -0.23789,-0.06629 z m 18.973237,-1.916541 c -0.1415,-2.527047 -0.11737,-2.595155 0.86026,-2.41699 0.91524,0.166806 0.98088,0.336226 0.72832,1.87985 -0.65741,4.017953 -1.37995,4.262264 -1.58858,0.53714 z m -31.944798,0.904284 c 0.135096,-0.538992 0.380845,-2.230531 0.54621,-3.758953 0.165381,-1.528437 0.393155,-2.778967 0.506206,-2.778967 0.113099,0 0.538182,0.389426 0.944766,0.865383 0.699952,0.819403 0.687756,1.010436 -0.229433,3.593936 -0.532766,1.500693 -1.203713,2.802791 -1.490976,2.893569 -0.350739,0.110789 -0.441645,-0.156878 -0.276773,-0.814968 z m 43.395338,0.378612 c -0.28666,-0.271729 -0.52118,-0.836473 -0.52118,-1.254981 0,-0.418524 -0.36737,-1.48171 -0.81637,-2.362638 -0.81615,-1.60129 -0.8161,-1.601897 0.16399,-2.474718 0.98035,-0.873039 0.98035,-0.873039 1.22771,0.489401 0.44427,2.447006 0.83181,6.096974 0.64736,6.096974 -0.0991,0 -0.41487,-0.222325 -0.70151,-0.494038 z m 1.75992,-0.946904 c 0.005,-0.905746 0.0937,-1.227797 0.19763,-0.715678 0.10391,0.512119 0.1,1.253176 -0.008,1.646788 -0.10867,0.393628 -0.1937,-0.02536 -0.18888,-0.93111 z m -14.38274,0.382114 c -0.12656,-1.824674 -1.53411,-4.84078 -2.83789,-6.080854 -0.75179,-0.715071 -1.62565,-2.133824 -1.94187,-3.152787 -0.31623,-1.018948 -0.9663,-2.501062 -1.44458,-3.293577 -0.86962,-1.440941 -0.86962,-1.440941 0.0422,-0.411708 0.50148,0.566097 1.38458,1.955581 1.9624,3.087745 2.93927,5.758959 9.07885,6.944292 13.158,2.54032 3.20756,-3.462981 2.01139,-8.731356 -2.46962,-10.877208 -1.06389,-0.509474 -1.6878,-0.926333 -1.38645,-0.926333 1.03096,0 2.98123,1.192507 4.3277,2.646208 3.2418,3.499952 1.95551,9.275622 -2.55086,11.453824 -1.86139,0.899725 -5.2331,0.92957 -7.00302,0.06193 -1.2797,-0.627296 -1.3283,-0.622317 -1.00571,0.103009 1.0606,2.3845 1.5466,4.079182 1.38818,4.840608 -0.17927,0.86168 -0.17932,0.86168 -0.23844,0.0093 z M 77.041009,88.056643 c 0.0049,-0.905731 0.09373,-1.227781 0.197653,-0.715678 0.103907,0.512119 0.09997,1.253176 -0.0082,1.646804 -0.108667,0.393612 -0.193697,-0.02536 -0.188888,-0.931126 z m 9.256144,-1.320256 c -0.23568,-0.586761 -0.1858,-0.634049 0.24313,-0.230478 0.29683,0.279275 0.43027,0.611471 0.29655,0.738225 -0.13378,0.126816 -0.37658,-0.101764 -0.53968,-0.507747 z m 0.32599,-3.737152 c -0.34743,-0.20941 -0.13575,-0.510626 0.65146,-0.926676 1.04582,-0.552793 1.31291,-0.546274 2.58739,0.06317 1.09529,0.523742 1.26143,0.73768 0.72453,0.932977 -0.95915,0.348908 -3.33853,0.307191 -3.96338,-0.0694 z m 23.887277,0 c -0.34743,-0.20941 -0.13559,-0.510626 0.65146,-0.926676 1.04582,-0.552793 1.31292,-0.546274 2.58738,0.06317 1.09531,0.523742 1.26145,0.73768 0.72453,0.932977 -0.95915,0.348908 -3.3385,0.307191 -3.96337,-0.0694 z M 83.694373,80.616664 c -1.436279,-1.361491 -0.516168,-3.392757 1.84635,-4.076117 0.90604,-0.262066 0.97907,-0.45828 0.7173,-1.927059 -0.33828,-1.897947 0.57712,-3.230636 2.21908,-3.230636 1.68263,0 2.48373,1.143648 2.19583,3.134769 -0.24564,1.69879 -0.2104,1.762821 1.21635,2.209167 1.52525,0.47717 1.98046,1.082931 1.98046,2.635518 0,1.959813 -2.51636,2.579781 -4.35049,1.071883 -1.00889,-0.829439 -1.00889,-0.829439 -1.9403,0 -1.11361,0.991702 -2.94037,1.077517 -3.88458,0.182475 z m 23.887277,0 c -1.40649,-1.333264 -0.43897,-3.572649 1.70624,-3.949176 0.72596,-0.127439 0.86862,-0.477747 0.86862,-2.132953 0,-2.053487 0.83235,-3.151683 2.38873,-3.151683 1.7798,0 2.55261,1.432073 2.1021,3.895323 -0.10637,0.581704 0.26841,0.997163 1.34001,1.485413 1.76486,0.804107 2.3241,1.950446 1.61396,3.308343 -0.72397,1.384318 -2.9298,1.553069 -4.14458,0.317056 -0.90534,-0.921167 -0.90534,-0.921167 -1.91361,-0.02334 -1.18197,1.052574 -2.99466,1.167408 -3.96147,0.250956 z m -14.254807,-4.50877 c -0.83434,-0.684775 -1.19436,-1.37369 -1.19436,-2.285505 0,-1.137968 0.0872,-1.236682 0.68011,-0.770202 0.9167,0.721187 2.01004,2.782376 1.84343,3.475289 -0.098,0.407508 -0.4611,0.292876 -1.32918,-0.419582 z m 23.995857,0.07733 c -0.71739,-0.588894 -1.1018,-1.351066 -1.13295,-2.246387 -0.0471,-1.35508 -0.0471,-1.35508 0.95468,-0.462918 0.88395,0.787178 1.81972,3.076527 1.41395,3.459216 -0.0824,0.0778 -0.63851,-0.259701 -1.23568,-0.749911 z M 82.577563,75.906482 c 0,-0.969045 1.09736,-2.714019 1.88751,-3.001432 1.03339,-0.375905 0.27069,2.508344 -0.84686,3.202455 -0.981769,0.609791 -1.04065,0.598416 -1.04065,-0.201023 z m 23.887287,0.171257 c 0,-0.891432 1.17368,-2.913035 1.82977,-3.151683 0.38503,-0.140042 0.55895,0.212755 0.55895,1.133813 0,1.026728 -0.27727,1.488012 -1.19436,1.986936 -1.0483,0.570314 -1.19436,0.574095 -1.19436,0.03097 z M 83.540693,71.691568 c 0.67218,-0.62269 1.46337,-1.126531 1.75818,-1.119654 0.29483,0.0062 0.14511,0.217455 -0.33258,0.467928 -0.47774,0.250474 -1.26893,0.754315 -1.75818,1.119654 -0.489249,0.365339 -0.339577,0.154824 0.33258,-0.467928 z m 15.20314,-0.126194 c -0.71998,-0.478026 -0.96527,-1.053413 -0.96527,-2.264343 0,-1.743184 -0.17914,-1.851562 -1.98475,-1.200801 -1.38761,0.500091 -2.96984,-0.269379 -3.34419,-1.626326 -0.31925,-1.157216 1.21027,-2.9133 2.53742,-2.9133 1.30783,0 1.32888,-0.50465 0.0873,-2.096417 -0.89628,-1.149142 -0.91908,-1.320795 -0.3122,-2.350589 0.46243,-0.78466 1.0665,-1.148898 2.0569,-1.240229 1.1776,-0.108595 1.52325,0.07232 2.15802,1.129567 0.950442,1.583051 1.429817,1.583051 2.380277,0 0.63475,-1.057241 0.98041,-1.238163 2.15802,-1.129567 0.9904,0.09134 1.59447,0.455569 2.05688,1.240229 0.6069,1.029794 0.5841,1.201447 -0.31218,2.350589 -1.23341,1.581404 -1.22073,2.096417 0.0515,2.096417 2.30173,0 3.34857,3.131953 1.44252,4.315808 -0.81719,0.50756 -1.28419,0.540049 -2.41089,0.167739 -1.70156,-0.562285 -2.01538,-0.314192 -1.85365,1.465309 0.0954,1.049321 -0.11113,1.53281 -0.86958,2.036417 -1.23853,0.822313 -1.662845,0.825191 -2.876317,0.01945 z m -4.24236,-0.781327 c -1.38832,-1.316039 -1.34763,-1.767925 0.14051,-1.56088 0.76609,0.106588 1.47225,0.606617 1.93421,1.369629 0.70058,1.157123 0.69536,1.201781 -0.14051,1.201781 -0.47749,0 -1.34788,-0.454749 -1.93421,-1.01053 z m 9.256877,-0.191251 c 0.68603,-1.133097 3.14081,-2.054109 3.14081,-1.178393 0,0.685149 -2.13661,2.380174 -3.00025,2.380174 -0.83592,0 -0.84114,-0.04466 -0.14051,-1.201781 z M 87.246433,68.167357 c -0.89576,-0.07033 -1.62866,-0.222153 -1.62866,-0.337517 0,-0.115302 0.63119,-1.076816 1.40266,-2.136563 1.40266,-1.926826 1.40266,-1.926826 1.74323,0.297543 0.18733,1.223394 0.28904,2.242342 0.22602,2.264328 -0.063,0.02194 -0.84746,-0.01758 -1.74325,-0.08776 z M 111.51618,66.24772 c 0.15299,-1.138264 0.31645,-2.115572 0.36331,-2.171807 0.10719,-0.128527 2.83732,3.459262 2.83732,3.728657 0,0.109077 -0.78271,0.26899 -1.73937,0.355474 -1.73935,0.157236 -1.73935,0.157236 -1.46126,-1.912324 z M 91.698163,63.015949 c 0,-0.731845 0.33503,-1.78403 0.74448,-2.338177 0.74449,-1.007551 0.74449,-1.007551 1.03689,0.347725 0.23765,1.101386 0.0982,1.539407 -0.74447,2.338177 -1.0369,0.982894 -1.0369,0.982894 -1.0369,-0.347725 z m 15.830217,0.164799 c -0.6414,-0.763931 -0.81993,-1.406974 -0.63751,-2.296182 0.25337,-1.235095 0.25337,-1.235095 1.02927,-0.13206 0.43029,0.611722 0.71425,1.634497 0.63751,2.296182 -0.13838,1.19316 -0.13838,1.19316 -1.02927,0.132106 z m -8.609447,-5.726959 c -1.46906,-0.675889 -0.87418,-1.291146 1.248367,-1.291146 2.11388,0 2.69776,0.605622 1.24014,1.286336 -1.06217,0.496042 -1.419295,0.496733 -2.488507,0.0048 z M 70.091041,142.3229 c 0.418024,-0.10347 1.102071,-0.10347 1.520096,0 0.418041,0.10363 0.076,0.1883 -0.760048,0.1883 -0.83605,0 -1.178073,-0.0848 -0.760048,-0.1883 z m 59.501019,0 c 0.41803,-0.10347 1.10207,-0.10347 1.5201,0 0.41802,0.10363 0.076,0.1883 -0.76005,0.1883 -0.83605,0 -1.17807,-0.0848 -0.76005,-0.1883 z m -59.501019,-0.82339 c 0.418024,-0.10363 1.102071,-0.10363 1.520096,0 0.418041,0.10364 0.076,0.18828 -0.760048,0.18828 -0.83605,0 -1.178073,-0.0848 -0.760048,-0.18828 z m 59.501019,0 c 0.41803,-0.10363 1.10207,-0.10363 1.5201,0 0.41802,0.10364 0.076,0.18828 -0.76005,0.18828 -0.83605,0 -1.17807,-0.0848 -0.76005,-0.18828 z M 70.616272,120.16915 c 9.8e-5,-9.96311 0.0568,-13.98 0.125903,-8.92647 0.06911,5.05357 0.06911,13.20519 -1.81e-4,18.11473 -0.06927,4.90956 -0.125739,0.77484 -0.125739,-9.18826 z m 59.932868,0 c -1.3e-4,-8.6045 0.0575,-12.18303 0.12804,-7.9523 0.0706,4.23074 0.0706,11.27079 2.3e-4,15.64454 -0.0704,4.37377 -0.12804,0.91225 -0.1282,-7.69224 z M 70.099314,99.093033 c 0.422572,-0.104409 1.008899,-0.09756 1.302941,0.01556 0.294043,0.112812 -0.05171,0.198175 -0.768321,0.189788 -0.716613,-0.0078 -0.957192,-0.100674 -0.53462,-0.205037 z m 59.501006,0 c 0.42257,-0.104409 1.0089,-0.09756 1.30294,0.01556 0.29404,0.112812 -0.0517,0.198175 -0.7683,0.189788 -0.71663,-0.0078 -0.95721,-0.100674 -0.53464,-0.205037 z M 69.548147,98.143235 c 0,-0.226433 0.488609,-0.411693 1.085787,-0.411693 0.597179,0 1.085788,0.18526 1.085788,0.411693 0,0.226433 -0.488609,0.411709 -1.085788,0.411709 -0.597178,0 -1.085787,-0.185276 -1.085787,-0.411709 z m 59.283873,0 c 0.14757,-0.226433 0.74548,-0.411693 1.32856,-0.411693 0.5831,0 1.06016,0.18526 1.06016,0.411693 0,0.226433 -0.59786,0.411709 -1.32858,0.411709 -0.77511,0 -1.21676,-0.171505 -1.06014,-0.411709 z M 69.776742,92.173622 c 0.540104,-16.51268 6.062344,-29.23076 16.813191,-38.721958 2.61498,-2.308586 11.23988,-8.693467 13.261012,-9.816909 1.019215,-0.566534 10.509105,6.328095 16.042265,11.655093 3.69586,3.558135 8.11084,9.590064 10.12173,13.828661 2.67458,5.637573 4.49238,14.049056 5.04717,23.35471 0.43667,7.324335 -0.43795,5.948156 -1.04079,-1.637623 C 129.23351,80.922361 127.82681,75.05988 124.6931,68.630181 121.16153,61.38413 115.36304,55.006257 106.83928,48.992377 99.146853,43.56504 100.478,43.721688 94.949043,47.593124 c -6.10383,4.273952 -12.802308,10.651633 -16.014644,15.247694 -5.434994,7.776096 -7.876383,15.889928 -8.949908,29.744497 -0.382815,4.94038 -0.382815,4.94038 -0.207749,-0.411693 z m 58.838118,2.659807 c 0,-1.367528 -0.21004,-4.285449 -0.46676,-6.484253 -2.04175,-17.487903 -8.64226,-28.23147 -24.06674,-39.173155 -4.197075,-2.977277 -4.197075,-2.977277 -8.398717,0.04119 -5.35885,3.849805 -11.37275,9.576857 -14.330362,13.646825 -3.004177,4.134033 -5.868827,9.907913 -7.201988,14.516004 -0.585195,2.022755 -1.078302,3.374226 -1.095801,3.0033 -0.05975,-1.265966 2.145377,-7.800074 3.639767,-10.785231 2.644639,-5.282861 5.771485,-9.333581 11.038434,-14.299927 4.27442,-4.030463 11.72518,-9.85233 12.608917,-9.85233 0.63511,0 8.2159,5.722761 11.58309,8.744135 11.15554,10.009788 16.44479,21.642259 17.41142,38.292399 0.20517,3.533936 0.14577,4.837465 -0.22021,4.837465 -0.32322,0 -0.50105,-0.882469 -0.50105,-2.48642 z M 71.434298,92.997008 c 0.0016,-1.811462 0.07797,-2.50131 0.169682,-1.53298 0.09176,0.96833 0.09045,2.450444 -0.0033,3.293576 -0.09324,0.843148 -0.168386,0.05088 -0.16681,-1.760596 z m 0.332092,-4.408935 c -0.05909,-1.413914 0.914053,-7.67052 1.107291,-7.118614 0.07928,0.226433 -0.126888,2.171714 -0.458242,4.322825 -0.331304,2.151128 -0.623393,3.409236 -0.649049,2.795789 z"
       id="path283" />
  </g>
</svg>
